<?xml version="1.0" encoding="UTF-8" standalone="no"?>
<!-- Created with Inkscape (http://www.inkscape.org/) -->

<svg
   xmlns:dc="http://purl.org/dc/elements/1.1/"
   xmlns:cc="http://creativecommons.org/ns#"
   xmlns:rdf="http://www.w3.org/1999/02/22-rdf-syntax-ns#"
   xmlns:svg="http://www.w3.org/2000/svg"
   xmlns="http://www.w3.org/2000/svg"
   xmlns:sodipodi="http://sodipodi.sourceforge.net/DTD/sodipodi-0.dtd"
   xmlns:inkscape="http://www.inkscape.org/namespaces/inkscape"
   width="19.622145mm"
   height="19.622145mm"
   viewBox="0 0 19.622145 19.622145"
   version="1.1"
   id="svg3944"
   inkscape:version="0.92.2 (unknown)"
   sodipodi:docname="dibujo-1.svg">
  <defs
     id="defs3938" />
  <sodipodi:namedview
     id="base"
     pagecolor="#ffffff"
     bordercolor="#666666"
     borderopacity="1.0"
     inkscape:pageopacity="0.0"
     inkscape:pageshadow="2"
     inkscape:zoom="0.35"
     inkscape:cx="57.08122"
     inkscape:cy="-311.49021"
     inkscape:document-units="mm"
     inkscape:current-layer="layer1"
     showgrid="false"
     fit-margin-top="0"
     fit-margin-left="0"
     fit-margin-right="0"
     fit-margin-bottom="0"
     inkscape:window-width="1366"
     inkscape:window-height="666"
     inkscape:window-x="0"
     inkscape:window-y="27"
     inkscape:window-maximized="1" />
  <metadata
     id="metadata3941">
    <rdf:RDF>
      <cc:Work
         rdf:about="">
        <dc:format>image/svg+xml</dc:format>
        <dc:type
           rdf:resource="http://purl.org/dc/dcmitype/StillImage" />
        <dc:title></dc:title>
      </cc:Work>
    </rdf:RDF>
  </metadata>
  <g
     inkscape:label="Capa 1"
     inkscape:groupmode="layer"
     id="layer1"
     transform="translate(-90.730594,-46.79607)">
    <g
       id="g3796"
       transform="matrix(0.33831284,0,0,0.33831284,90.730594,46.79607)">
      <g
         id="g3701">
        <path
           id="path3699"
           d="M 29,0 C 12.984,0 0,12.984 0,29 0,37.629 3.778,45.366 9.761,50.677 15.033,46.501 21.692,44 28.939,44 36.22,44 42.906,46.524 48.19,50.734 54.203,45.42 58,37.656 58,29 58,12.984 45.016,0 29,0 Z"
           style="fill:#556080"
           inkscape:connector-curvature="0" />
      </g>
      <g
         id="g3721">
        <path
           id="path3703"
           d="m 29,3 c -0.553,0 -1,0.447 -1,1 v 2 c 0,0.553 0.447,1 1,1 0.553,0 1,-0.447 1,-1 V 4 C 30,3.447 29.553,3 29,3 Z"
           style="fill:#7383bf"
           inkscape:connector-curvature="0" />
        <path
           id="path3705"
           d="m 54.5,28 h -2 c -0.553,0 -1,0.447 -1,1 0,0.553 0.447,1 1,1 h 2 c 0.553,0 1,-0.447 1,-1 0,-0.553 -0.447,-1 -1,-1 z"
           style="fill:#7383bf"
           inkscape:connector-curvature="0" />
        <path
           id="path3707"
           d="m 6.5,29 c 0,-0.553 -0.447,-1 -1,-1 h -2 c -0.553,0 -1,0.447 -1,1 0,0.553 0.447,1 1,1 h 2 c 0.553,0 1,-0.448 1,-1 z"
           style="fill:#7383bf"
           inkscape:connector-curvature="0" />
        <path
           id="path3709"
           d="M 42.25,6.551 C 41.771,6.275 41.16,6.438 40.884,6.917 l -1,1.731 c -0.276,0.479 -0.112,1.09 0.366,1.366 0.157,0.091 0.329,0.134 0.499,0.134 0.346,0 0.682,-0.179 0.867,-0.5 l 1,-1.731 C 42.893,7.438 42.729,6.827 42.25,6.551 Z"
           style="fill:#7383bf"
           inkscape:connector-curvature="0" />
        <path
           id="path3711"
           d="m 51.584,41.384 -1.732,-1 c -0.478,-0.276 -1.091,-0.112 -1.366,0.366 -0.276,0.479 -0.112,1.09 0.366,1.366 l 1.732,1 c 0.157,0.091 0.329,0.134 0.499,0.134 0.346,0 0.682,-0.18 0.867,-0.5 0.277,-0.479 0.113,-1.09 -0.366,-1.366 z"
           style="fill:#7383bf"
           inkscape:connector-curvature="0" />
        <path
           id="path3713"
           d="m 9.148,16.884 -1.732,-1 C 6.938,15.608 6.326,15.772 6.05,16.25 5.774,16.728 5.938,17.34 6.416,17.616 l 1.732,1 c 0.157,0.091 0.329,0.134 0.499,0.134 0.346,0 0.682,-0.18 0.867,-0.5 0.277,-0.479 0.113,-1.09 -0.366,-1.366 z"
           style="fill:#7383bf"
           inkscape:connector-curvature="0" />
        <path
           id="path3715"
           d="M 17.111,6.883 C 16.835,6.404 16.221,6.24 15.745,6.517 15.266,6.793 15.102,7.405 15.379,7.883 l 1,1.732 c 0.186,0.32 0.521,0.5 0.867,0.5 0.17,0 0.342,-0.043 0.499,-0.134 0.479,-0.276 0.643,-0.888 0.366,-1.366 z"
           style="fill:#7383bf"
           inkscape:connector-curvature="0" />
        <path
           id="path3717"
           d="m 49.099,18.284 c 0.17,0 0.342,-0.043 0.499,-0.134 l 1.731,-1 c 0.479,-0.276 0.643,-0.888 0.366,-1.366 -0.277,-0.479 -0.89,-0.644 -1.366,-0.366 l -1.731,1 c -0.479,0.276 -0.643,0.888 -0.366,1.366 0.185,0.321 0.521,0.5 0.867,0.5 z"
           style="fill:#7383bf"
           inkscape:connector-curvature="0" />
        <path
           id="path3719"
           d="m 7.894,39.918 -1.731,1 c -0.479,0.276 -0.643,0.888 -0.366,1.366 0.186,0.321 0.521,0.5 0.867,0.5 0.17,0 0.342,-0.043 0.499,-0.134 l 1.731,-1 C 9.373,41.374 9.537,40.762 9.26,40.284 8.982,39.804 8.37,39.641 7.894,39.918 Z"
           style="fill:#7383bf"
           inkscape:connector-curvature="0" />
      </g>
      <path
         id="path3723"
         d="M 9.752,50.683 C 14.873,55.232 21.612,58 29,58 36.361,58 43.076,55.252 48.19,50.734 42.906,46.524 36.22,44 28.939,44 21.688,44 15.025,46.504 9.752,50.683 Z"
         style="fill:#38454f"
         inkscape:connector-curvature="0" />
      <path
         id="path3725"
         d="m 42.021,17.172 c -0.391,-0.391 -1.023,-0.391 -1.414,0 L 32.22,25.56 C 30.683,24.563 28.495,24.727 27.172,26.051 26.416,26.805 26,27.81 26,28.879 c 0,1.069 0.416,2.073 1.172,2.828 0.755,0.756 1.76,1.172 2.828,1.172 1.068,0 2.073,-0.416 2.828,-1.172 C 33.584,30.952 34,29.947 34,28.879 34,28.234 33.832,27.62 33.545,27.063 l 8.476,-8.477 c 0.39,-0.391 0.39,-1.024 0,-1.414 z M 31.414,30.293 c -0.756,0.756 -2.072,0.756 -2.828,0 C 28.208,29.915 28,29.413 28,28.879 c 0,-0.534 0.208,-1.036 0.586,-1.414 0.378,-0.378 0.88,-0.586 1.414,-0.586 0.534,0 1.036,0.208 1.414,0.586 0.378,0.378 0.586,0.879 0.586,1.414 0,0.535 -0.208,1.036 -0.586,1.414 z"
         style="fill:#404960"
         inkscape:connector-curvature="0" />
      <path
         id="path3727"
         d="m 41.021,16.172 c -0.391,-0.391 -1.023,-0.391 -1.414,0 L 31.22,24.56 C 29.683,23.563 27.495,23.727 26.172,25.051 25.416,25.805 25,26.81 25,27.879 c 0,1.069 0.416,2.073 1.172,2.828 0.755,0.756 1.76,1.172 2.828,1.172 1.068,0 2.073,-0.416 2.828,-1.172 C 32.584,29.952 33,28.947 33,27.879 33,27.234 32.832,26.62 32.545,26.063 l 8.476,-8.477 c 0.39,-0.391 0.39,-1.024 0,-1.414 z M 30.414,29.293 c -0.756,0.756 -2.072,0.756 -2.828,0 C 27.208,28.915 27,28.413 27,27.879 c 0,-0.534 0.208,-1.036 0.586,-1.414 0.378,-0.378 0.88,-0.586 1.414,-0.586 0.534,0 1.036,0.208 1.414,0.586 0.378,0.378 0.586,0.879 0.586,1.414 0,0.535 -0.208,1.036 -0.586,1.414 z"
         style="fill:#ffffff"
         inkscape:connector-curvature="0" />
      <g
         id="g3729" />
      <g
         id="g3731" />
      <g
         id="g3733" />
      <g
         id="g3735" />
      <g
         id="g3737" />
      <g
         id="g3739" />
      <g
         id="g3741" />
      <g
         id="g3743" />
      <g
         id="g3745" />
      <g
         id="g3747" />
      <g
         id="g3749" />
      <g
         id="g3751" />
      <g
         id="g3753" />
      <g
         id="g3755" />
      <g
         id="g3757" />
    </g>
  </g>
</svg>
